<svg xmlns="http://www.w3.org/2000/svg" width="33" height="35"><g fill="none"><path d="M24.404 12.282h-8.976c.048.208.128.432.176.608.304 1.024.48 2.112.56 3.216.048.432.048.896.048 1.328 0 .432 0 .896-.048 1.328a15.02 15.02 0 01-.56 3.216c-.048.208-.128.432-.176.608h8.976c2.832 0 5.12-2.32 5.12-5.152 0-2.832-2.288-5.152-5.12-5.152z" fill="#00A9E5"/><path d="M16.164 18.762c.048-.432.048-.896.048-1.328 0-.432 0-.896-.048-1.328a15.02 15.02 0 00-.56-3.216c-.048-.208-.128-.432-.176-.608H1.556a17.086 17.086 0 00-.768 5.152c0 1.808.256 3.52.768 5.152h13.872c.048-.208.128-.432.176-.608a17.31 17.31 0 00.56-3.216z" fill="#353535"/><path d="M25.956 24.314H14.788a16.83 16.83 0 01-1.168 2.192c-.64 1.072-1.424 2.016-2.272 2.928-.304.304-.608.56-.896.864-.608.56-1.296 1.024-1.984 1.504 2.704 1.808 5.968 2.832 9.456 2.832 5.968 0 11.216-3.056 14.304-7.648-1.6-1.648-3.824-2.672-6.272-2.672z" fill="#00BFB3"/><path d="M13.62 26.506a19.02 19.02 0 001.168-2.192H2.196a16.904 16.904 0 006.32 7.472c.688-.48 1.328-.944 1.984-1.504.304-.256.608-.56.896-.864.8-.848 1.584-1.84 2.224-2.912z" fill="#019B8F"/><path d="M11.348 5.45c-.304-.304-.608-.56-.896-.864-.608-.56-1.296-1.024-1.984-1.504-2.752 1.808-4.944 4.432-6.32 7.472H14.74a16.83 16.83 0 00-1.168-2.192c-.592-1.072-1.376-2.048-2.224-2.912z" fill="#F9B110"/><path d="M17.924.25c-3.488 0-6.752 1.024-9.456 2.832.688.48 1.328.944 1.984 1.504.304.256.608.56.896.864.848.896 1.632 1.84 2.272 2.928a19.02 19.02 0 011.168 2.192h11.168a8.748 8.748 0 006.272-2.656C29.124 3.306 23.892.25 17.924.25z" fill="#FED10A"/></g></svg>