<svg width="34" height="54" xmlns="http://www.w3.org/2000/svg"><path d="M26.804 29.91c-2.15 0-4.077.93-5.397 2.398l-3.382-2.342a8.857 8.857 0 00.565-3.092 8.855 8.855 0 00-.546-3.041l3.374-2.317a7.243 7.243 0 005.386 2.386c3.967 0 7.196-3.158 7.196-7.04 0-3.881-3.229-7.04-7.196-7.04-3.968 0-7.197 3.159-7.197 7.04 0 .695.108 1.365.3 2l-3.376 2.318a9.334 9.334 0 00-5.755-3.272v-3.98c3.26-.67 5.715-3.503 5.715-6.889C16.491 3.158 13.263 0 9.295 0 5.327 0 2.1 3.158 2.1 7.04c0 3.34 2.392 6.138 5.587 6.855v4.033C3.326 18.676 0 22.398 0 26.874c0 4.498 3.36 8.234 7.75 8.957v4.258c-3.227.694-5.65 3.509-5.65 6.871C2.099 50.842 5.327 54 9.295 54c3.968 0 7.196-3.158 7.196-7.04 0-3.362-2.424-6.177-5.651-6.871V35.83a9.338 9.338 0 005.658-3.22l3.404 2.358a6.864 6.864 0 00-.295 1.98c0 3.882 3.229 7.04 7.197 7.04 3.967 0 7.196-3.158 7.196-7.04s-3.229-7.04-7.196-7.04zm0-16.46c1.924 0 3.489 1.53 3.489 3.412s-1.565 3.413-3.49 3.413c-1.923 0-3.488-1.531-3.488-3.413 0-1.881 1.565-3.413 3.489-3.413zM5.806 7.04c0-1.882 1.565-3.413 3.49-3.413 1.923 0 3.488 1.53 3.488 3.412s-1.565 3.413-3.489 3.413-3.489-1.53-3.489-3.413zm6.978 39.92c0 1.882-1.565 3.413-3.489 3.413s-3.489-1.53-3.489-3.412 1.565-3.413 3.49-3.413c1.923 0 3.488 1.53 3.488 3.413zm-3.49-15.326c-2.683 0-4.866-2.135-4.866-4.76s2.183-4.76 4.867-4.76c2.683 0 4.866 2.135 4.866 4.76s-2.183 4.76-4.866 4.76zm17.51 8.728c-1.924 0-3.49-1.532-3.49-3.413 0-1.882 1.566-3.413 3.49-3.413 1.924 0 3.489 1.531 3.489 3.413 0 1.881-1.565 3.413-3.49 3.413z"/></svg>