<svg xmlns="http://www.w3.org/2000/svg" width="64" height="64"><linearGradient id="a" x1="32" x2="32" y1="6" y2="58" gradientUnits="userSpaceOnUse" spreadMethod="reflect"><stop offset="0" stop-color="#1a6dff"/><stop offset="1" stop-color="#c822ff"/></linearGradient><path fill="none" stroke="url(#a)" stroke-miterlimit="10" stroke-width="2" d="M32 7a25 25 0 100 50 25 25 0 100-50z"/><linearGradient id="b" x1="31.03" x2="31.03" y1="16" y2="48" gradientUnits="userSpaceOnUse" spreadMethod="reflect"><stop offset="0" stop-color="#6dc7ff"/><stop offset="1" stop-color="#e6abff"/></linearGradient><path fill="url(#b)" d="M13.125 36c-.961-7.967 8.851-17.938 17.349-20 0 0-3.474 2.449-3.474 4.525 0 4.154 1.971 2.745 1.971 2.745s.039 14.986.039 16.057c0 1.071.985 1.673 2.365 1.673C32.755 41 36 39.25 36 39.25V25.875c0-1.472-1.644-2.822-2.438-3.515 2.123 0 3.088.737 3.088.737s2.756-3.643 9.919-5.557C45.481 18.951 42 23.227 42 24.5V39c0 .737.849 1 1.375 1s2.904-.691 5.625-3.75c0 .93-3.632 7.118-9.131 10.746L36.25 44l-3.739 4S23.25 47.5 20 42c.967.146 3 .54 3-1V28.5c0-1.005-.521-1.5-1.375-1.5-.854.001-3.878.685-8.5 9z"/></svg>