<svg width="52" height="56" xmlns="http://www.w3.org/2000/svg"><g fill="none"><path d="M30 9v8.545l15 8.545v-8.545L30 9zM0 17.545v8.545l7.5 4.273v-8.545L0 17.545zm22.499 4.273l-7.5 4.272v25.635l7.5 4.275V38.91l7.5 4.272v-8.545l-7.5-4.272v-8.547z" fill="#E55B2D"/><path d="M29.5 9L7 21.818v8.545l15.002-8.545v8.545l7.5-4.273V9H29.5zM52 13.273l-7.5 4.272v8.545l7.5-4.272v-8.545zM37 30.365l-7.5 4.272v8.545L37 38.91v-8.545zm-7.5 12.817L22 38.91V56l7.5-4.273v-8.545z" fill="#ED8E24"/><path d="M29.713 0L0 17l7.429 4.25L29.713 8.5 44.571 17 52 12.75 29.713 0zm0 25.5l-7.429 4.25 7.43 4.25 7.428-4.25-7.429-4.25z" fill="#F8BF3C"/></g></svg>