<svg xmlns="http://www.w3.org/2000/svg" viewBox="0 0 47 54"><clipPath id="a" transform="translate(-15 -12)"><path d="M0 0h78v78H0z"/></clipPath><clipPath id="b" transform="translate(-15 -12)"><path d="M15.48 12.49h23.67v14.2H15.48z"/></clipPath><clipPath id="c" transform="translate(-15 -12)"><path d="M15.48 25.41h46.03v27.16H15.48z"/></clipPath><clipPath id="d" transform="translate(-15 -12)"><path d="M37.87 12.49h23.64v14.2H37.87z"/></clipPath><clipPath id="e" transform="translate(-15 -12)"><path d="M15.48 25.41h46.03v27.16H15.48z"/></clipPath><clipPath id="f" transform="translate(-15 -12)"><path d="M15.48 51.28h23.67v14.24H15.48z"/></clipPath><clipPath id="g" transform="translate(-15 -12)"><path d="M37.87 51.28h23.64v14.24H37.87z"/></clipPath><clipPath id="h" transform="translate(-15 -12)"><path d="M15.48 25.41h1.28v27.16h-1.28z"/></clipPath><clipPath id="i" transform="translate(-15 -12)"><path d="M60.23 25.41h1.28v27.16h-1.28z"/></clipPath><clipPath id="j" transform="translate(-15 -12)"><path d="M37.87 12.49h1.28v52.96h-1.28z"/></clipPath><g clip-path="url(#a)"><path d="M30 6a1.12 1.12 0 01-.56-.15l-6-3.44-6 3.45a1.124 1.124 0 11-1.12-1.95L23 .15a1.12 1.12 0 011.12 0l6.51 3.77A1.12 1.12 0 0130 6m-6.49 29.65a1.12 1.12 0 01-1.12-1.12V27a1.125 1.125 0 112.25 0v7.54a1.12 1.12 0 01-1.12 1.12M1.12 22.71A1.12 1.12 0 010 21.58V14a1.12 1.12 0 112.24 0v7.54a1.12 1.12 0 01-1.12 1.12m44.76.05a1.12 1.12 0 01-1.12-1.12V14A1.12 1.12 0 1147 14v7.54a1.12 1.12 0 01-1.12 1.12m0 18.34a1.12 1.12 0 01-1.12-1.12v-7.49a1.12 1.12 0 011.12-1.12A1.12 1.12 0 0147 32.39v7.54A1.12 1.12 0 0145.88 41zM1.12 41A1.12 1.12 0 010 39.93v-7.54a1.12 1.12 0 112.24 0v7.54A1.12 1.12 0 011.12 41"/><path d="M23.51 10.47a1.12 1.12 0 01-1.12-1.12V1.13a1.125 1.125 0 112.25 0v8.22a1.12 1.12 0 01-1.12 1.12M23.51 54a1.12 1.12 0 01-1.12-1.12v-7.54a1.125 1.125 0 112.25 0v7.54A1.12 1.12 0 0123.51 54"/><path d="M23.51 54a1.13 1.13 0 01-.56-.15l-6.56-3.79a1.124 1.124 0 011.12-1.95l6 3.47 5.91-3.43a1.127 1.127 0 011.13 1.95l-6.48 3.75a1.11 1.11 0 01-.56.15m0-25.89A1.13 1.13 0 0123 28l-6.53-3.77a1.124 1.124 0 011.12-1.95l6 3.45 6-3.45a1.127 1.127 0 011.13 1.95L24.08 28a1.11 1.11 0 01-.56.15m15.83-9.21a1.12 1.12 0 01-.56-2.1l6.52-3.77A1.12 1.12 0 0146.44 15l-6.52 3.77a1.12 1.12 0 01-.56.15"/><path d="M45.87 15.17a1.12 1.12 0 01-.56-.15l-6.53-3.77A1.124 1.124 0 1139.9 9.3l6.53 3.77a1.12 1.12 0 01-.56 2.1M7.65 18.94a1.12 1.12 0 01-.56-.15L.56 15a1.124 1.124 0 011.12-1.95l6.52 3.77a1.12 1.12 0 01-.56 2.1"/><path d="M1.12 15.17a1.12 1.12 0 01-.56-2.1l6.52-3.76a1.124 1.124 0 011.12 1.95L1.68 15a1.13 1.13 0 01-.56.15m38.22 29.67a1.12 1.12 0 01-.56-2.1L45.32 39a1.124 1.124 0 111.12 1.95l-6.54 3.72a1.13 1.13 0 01-.56.15"/><path d="M45.88 41a1.12 1.12 0 01-.56-.15l-6.53-3.77a1.124 1.124 0 011.12-1.95L46.44 39a1.12 1.12 0 01-.56 2.1M7.65 44.82a1.13 1.13 0 01-.56-.15L.56 40.9A1.12 1.12 0 011.69 39l6.52 3.77a1.12 1.12 0 01-.56 2.1"/><path d="M1.12 41a1.12 1.12 0 01-.56-2.1l6.51-3.77a1.127 1.127 0 011.13 1.95L1.69 40.9a1.12 1.12 0 01-.56.15"/><g clip-path="url(#b)" opacity=".2"><path d="M1.12 14.69a.64.64 0 01-.32-1.2L23.19.57a.64.64 0 01.64 1.11L1.44 14.6a.64.64 0 01-.32.09"/></g><g clip-path="url(#c)" opacity=".2"><path d="M1.12 40.57a.64.64 0 01-.32-1.2l44.76-25.88a.64.64 0 01.64 1.11L1.44 40.48a.64.64 0 01-.32.09"/></g><g clip-path="url(#d)" opacity=".2"><path d="M45.87 14.69a.64.64 0 01-.32-.09L23.19 1.68a.64.64 0 01.64-1.11l22.36 12.92a.64.64 0 01-.32 1.2"/></g><g clip-path="url(#e)" opacity=".2"><path d="M45.88 40.57a.63.63 0 01-.32-.09L.8 14.6a.64.64 0 01.64-1.11L46.2 39.37a.64.64 0 01-.32 1.2"/></g><g clip-path="url(#f)" opacity=".2"><path d="M23.51 53.52a.64.64 0 01-.32-.09L.8 40.43a.64.64 0 01.64-1.11l22.39 13a.64.64 0 01-.32 1.2"/></g><g clip-path="url(#g)" opacity=".2"><path d="M23.51 53.52a.64.64 0 01-.32-1.2l22.36-13a.64.64 0 01.64 1.11l-22.36 13a.64.64 0 01-.32.09"/></g><g clip-path="url(#h)" opacity=".2"><path d="M1.12 40.57a.64.64 0 01-.64-.64V14a.64.64 0 111.28 0v25.93a.64.64 0 01-.64.64"/></g><g clip-path="url(#i)" opacity=".2"><path d="M45.88 40.57a.64.64 0 01-.64-.64V14a.64.64 0 111.28 0v25.93a.64.64 0 01-.64.64"/></g><g clip-path="url(#j)" opacity=".2"><path d="M23.51 53.45a.64.64 0 01-.64-.64V1.13a.64.64 0 011.28 0v51.68a.64.64 0 01-.64.64"/></g></g></svg>