<svg width="110" height="75" xmlns="http://www.w3.org/2000/svg"><g fill="none"><path d="M92.797 0C97.331 0 101 3.713 101 8.3v27.664c0 4.587-3.67 8.3-8.203 8.3H67.11L70.636 53 55.13 44.264H21.203c-4.533 0-8.203-3.713-8.203-8.3V8.3C12.965 3.75 16.634 0 21.168 0h71.63zm-73.14 6.407c-1.008.072-1.763.436-2.267 1.128-.504.655-.683 1.492-.576 2.439 2.123 13.65 4.102 22.86 5.937 27.628.72 1.748 1.547 2.585 2.518 2.512 1.511-.11 3.31-2.22 5.433-6.334 1.115-2.33 2.842-5.824 5.18-10.483 1.943 6.88 4.605 12.049 7.951 15.507.936.982 1.907 1.42 2.842 1.346.828-.072 1.475-.51 1.907-1.31.36-.692.504-1.493.432-2.403-.216-3.312.108-7.935 1.007-13.868.935-6.116 2.087-10.52 3.49-13.141.288-.546.395-1.092.36-1.747-.072-.838-.432-1.53-1.116-2.075-.683-.546-1.439-.801-2.266-.728-1.044.073-1.835.582-2.375 1.601-2.23 4.114-3.813 10.775-4.749 20.021-1.367-3.494-2.518-7.608-3.417-12.45-.396-2.147-1.367-3.166-2.95-3.057-1.08.073-1.98.801-2.699 2.184l-7.879 15.18c-1.295-5.279-2.518-11.722-3.633-19.33-.252-1.892-1.296-2.766-3.13-2.62zm69.327 2.62a9.338 9.338 0 00-1.943-.218c-3.454 0-6.26 1.82-8.454 5.46-1.871 3.094-2.807 6.516-2.807 10.265 0 2.803.576 5.206 1.727 7.208 1.296 2.293 3.202 3.676 5.757 4.222a9.34 9.34 0 001.942.219c3.49 0 6.296-1.82 8.455-5.46 1.87-3.13 2.806-6.553 2.806-10.302 0-2.84-.575-5.205-1.727-7.17-1.295-2.294-3.202-3.677-5.756-4.223zm-1.511 19.694c-1.043.946-2.015 1.346-2.914 1.164-.864-.182-1.583-.946-2.123-2.366-.432-1.128-.648-2.257-.648-3.312 0-.91.072-1.82.252-2.657a11.838 11.838 0 011.907-4.332c1.187-1.784 2.447-2.512 3.742-2.257.863.182 1.583.946 2.122 2.366.432 1.128.648 2.257.648 3.313 0 .946-.108 1.856-.252 2.693-.503 2.403-1.403 4.186-2.734 5.388zM67.586 9.523a9.338 9.338 0 00-1.942-.218c-3.454 0-6.26 1.82-8.455 5.46-1.87 3.094-2.806 6.516-2.806 10.265 0 2.803.575 5.205 1.727 7.207 1.295 2.294 3.202 3.677 5.756 4.223a9.34 9.34 0 001.943.218c3.49 0 6.296-1.82 8.454-5.46 1.871-3.13 2.806-6.552 2.806-10.302 0-2.839-.575-5.205-1.726-7.17-1.295-2.294-3.202-3.677-5.757-4.223zm-1.51 19.693c-1.044.946-2.015 1.347-2.915 1.165-.863-.182-1.583-.947-2.123-2.366-.431-1.129-.647-2.257-.647-3.313 0-.91.072-1.82.252-2.657a11.838 11.838 0 011.907-4.332c1.187-1.783 2.446-2.511 3.741-2.257.864.182 1.583.947 2.123 2.366.431 1.129.647 2.257.647 3.313 0 .946-.107 1.856-.251 2.694-.504 2.402-1.403 4.186-2.735 5.387z" fill="#7F54B3"/><path d="M2.38 59.485C.785 61.142 0 63.251 0 65.812c0 2.736.785 4.97 2.356 6.652C3.926 74.147 5.974 75 8.52 75c.738 0 1.57-.125 2.475-.402v-4.067c-.833.251-1.547.377-2.165.377-1.262 0-2.261-.452-3.023-1.33-.761-.904-1.142-2.11-1.142-3.64 0-1.432.38-2.612 1.118-3.515.762-.93 1.69-1.381 2.832-1.381.738 0 1.523.125 2.38.376v-4.067c-.785-.225-1.666-.326-2.594-.326-2.427-.025-4.426.803-6.021 2.46zM18.897 57c-2.19 0-3.903.778-5.141 2.31-1.238 1.531-1.833 3.69-1.833 6.452 0 2.987.62 5.271 1.833 6.853C14.97 74.197 16.755 75 19.087 75c2.261 0 3.998-.803 5.212-2.385 1.214-1.582 1.833-3.816 1.833-6.678s-.62-5.07-1.857-6.627C23.014 57.778 21.23 57 18.897 57zm1.88 13.054c-.429.703-1.071 1.055-1.88 1.055-.762 0-1.333-.352-1.738-1.055-.404-.703-.595-2.108-.595-4.242 0-3.289.786-4.92 2.38-4.92 1.666 0 2.523 1.656 2.523 4.995-.024 2.059-.262 3.464-.69 4.167zm17.111-12.577l-.856 3.841c-.215.98-.429 1.983-.62 3.013l-.475 2.66c-.452-2.66-1.071-5.824-1.856-9.514h-5.522l-2.07 17.096h4.14L31.75 62.8l2.831 11.774h2.951l2.713-11.749 1.167 11.75h4.331l-2.19-17.097h-5.664zm19.825 0l-.857 3.841a94.13 94.13 0 00-.618 3.013l-.476 2.66c-.453-2.66-1.071-5.824-1.857-9.514h-5.521l-2.07 17.096h4.14L51.573 62.8l2.832 11.774h2.951l2.69-11.749 1.166 11.75h4.331l-2.19-17.097h-5.64zm13.47 10.343h3.88v-3.54h-3.88v-3.138h4.475v-3.64h-8.854v17.096h8.878v-3.64h-4.499V67.82zm16.827-2.71c.453-.778.69-1.582.69-2.41 0-1.607-.594-2.887-1.784-3.816-1.19-.929-2.832-1.406-4.879-1.406h-5.093v17.096h4.379v-7.782h.071l3.546 7.782h4.617l-3.498-7.707c.833-.402 1.5-.979 1.951-1.757zm-6.71-.276v-4.067c1.046.025 1.784.2 2.236.552.452.351.667.904.667 1.707 0 1.18-.976 1.783-2.904 1.808zm9.97-5.348c-1.594 1.657-2.379 3.766-2.379 6.327 0 2.736.785 4.97 2.357 6.652C92.817 74.147 94.863 75 97.41 75c.737 0 1.57-.125 2.474-.402v-4.067c-.832.251-1.547.377-2.166.377-1.26 0-2.26-.452-3.022-1.33-.762-.904-1.142-2.11-1.142-3.64 0-1.432.38-2.612 1.118-3.515.762-.93 1.69-1.381 2.832-1.381.737 0 1.524.125 2.38.376v-4.067c-.785-.225-1.665-.326-2.593-.326-2.405-.025-4.427.803-6.023 2.46zm14.21 11.423v-3.113h3.878v-3.54h-3.878v-3.138h4.497v-3.64h-8.853v17.096H110v-3.64h-4.521v-.025z" fill="#000"/></g></svg>