<svg width="63" height="47" xmlns="http://www.w3.org/2000/svg"><g fill="none"><path fill="#FF0" d="M23.054 10.301l-4.183.675-3.816 1.664-3.241 2.026-3.084 3.741-1.743 1.835-1.685.617-.446-1.083.78-1.117.175-1.577.522.021.57.517-.154-1.606-.632-.422.02-.612-1.498.842-1.356 1.59L3 18.835l.58 1.138.54 1.933 1.1.518 1.158-.056 1.097-.634-.732 3.69.732 4.104-.806 1.896L4.03 34.25l.47 1.689 1.25 1.956 2.357 1.648 1.25.17 1.39.047-.867 3.54 3.189 1.298 3.972.52 1.36-.883.104-2.391 1.517-2.494.104-1.975 3.66.26 3.398-.312-3.398 2.027.575 2.442 2.143 3.326 2.091.883 1.673-.676.68-1.35 3.502-2.65.68.57 5.489.209 1.098-.883.104-1.56-.366-.675-.261-4.209-1.83-3.637.314-1.611 1.098.571 3.084 2.858 1.516.104 1.673-.675 1.673-1.247.836-2.702 4.914.311 2.98-1.143 2.405-2.234 1.725-3.222.418-3.793-.366-4.417-.94-3.95-.942-1.246-1.306-.416-2.3 2.494-2.092.727-1.83-3.013-1.83-1.663-.993-.624-3.973-3.273L42.24 1.26 39.05 1l-3.711.624-3.241 1.194-2.248 1.82-1.778 2.13-1.83.52-3.189 3.013"/><path d="M11.016 20.098C7.39 24.186 8.196 29.143 9.2 34l-1.608-3.929L7 26.47l.17-3.683 1.523-3.52 2.286-3.273 3.555-2.865 3.894-1.555L23 11l-4.233 4.665c-3.399 1.066-5.403 1.784-7.751 4.433" fill="#FFC"/><path d="M27.664 6.977c-2.497 2.41-3.862 4.23-5.452 7.052-1.136 2.02-2.412 3.965-3.607 5.956-.605 1.008-.662 1.853-.843 3.015L16 20.924l.84-2.49 2.852-5.064 6.042-5.895 1.93-.498M40 1c-2.001.742-5.323.986-5.554 3.258-.164 1.613.123 2.424 1.106 4.13-2.427-2.485-3.028-2.1-7.72-1.328l2.014-2.822 3.524-2.16 4.532-.995L40 1" fill="#FFC"/><path d="M45.334 31.943c.664.406.65.7.538.979.524-.208 1.047-.416 1.57-.622l1.018-1.355.756-1.928-.966-.72-4.218.534-.314.845.09 1.2.404.712.628.311.494.044m-.393-7.147c-2.114.604-2.098.771-2.722 2.85.824-1.31 1.434-1.972 2.722-2.85M59 9.242c-.376.172-.742.255-.977.595-.506.734-.94 1.35-1.776 1.865-.42.26-.857.428-1.303.566-.37.114-.594.012-.91.237l.563.097h1.237l1.526-.934.897-.934L59 9.242m-33.68 4.65c-.832 2.255-1.559 4.188-2.819 6.23 1.615-1.724 2.594-3.19 3.518-5.138.36-.757.428-1.645 1.428-1.315.045.756.207 1.511.251 2.267.541-3.84 2.066-5.446 5.61-6.936l-3.007.356-2.827.622-1.391 2.001-.763 1.912m6.866-.089c.764 3.564 1.864 6.985 2.343 10.606.31 2.353.344 3.483-.85 5.513-1.306-.084-2.117.062-3.38.472-5.028 1.633-7.912 4.035-11.299-.804l3.244 1.515 2.313-.45 4.084-2.356 3.186-.623 1.032-4.268-.763-5.647-.09-2.668.18-1.29m8.66 22.054c-.422 2.896.973 4.453.395 5.253-.163.226-.385.621-.632.73-.884.386-2.1-.073-2.186.153h-2.916l-1.167-.489 1.795-2.09 1.75-3.78 1.121-3.823h.584l1.256 4.046" fill="#CC0"/><path d="M36.267 27.07c.236 1.32.644 1.633 1.265 2.91-.413 2.083-1.076 4.56-1.874 6.399-.337.775-.608 1.202-1.202 1.801a30.959 30.959 0 01-3.15 2.771c-.817.63-1.388.315-2.397.172-.429.778-.547 1.21-1.337 1.606-1.214.607-2.3-.702-3.254-1.473l2.064 3.227 1.427 1.338 1.203.179 1.605-.982.847-1.605c.594-.446 1.19-.893 1.783-1.34l2.185-1.873 1.381-1.962 1.248-2.32 1.606-4.818.133-1.829-2.006-.892c-.49-.46-1.036-.847-1.527-1.308m-15.992 9.293c2.25 0 4.626-.125 6.687-1.07a18.38 18.38 0 011.872-2.365c-.65 1.228-.853 1.921-1.025 3.301l-.669.982-5.082.134-1.65-.179c-.059-.06-.118-.12-.178-.178l.045-.625m-.312-1.561l-.175-1.584c-.384 2.315-.292 3.867-1.357 5.941-.795.922-1.774 1.762-2.896 2.21.095.57.123.925.068 1.342-.198 1.5-3.195.837-4.429.777l5.936 1.53 1.337-.536.446-2.587 1.248-2.32.223-1.427-.401-3.346m-3.344-13.07c-.062 1.125-.134 1.595.362 2.589.63 1.263 1.405 2.451 2.09 3.7l.223-2.498-2.674-3.792m-9.151 8.505c-.194.41-.386.822-.58 1.233.532 1.79 1.004 2.924 2.015 4.488-.176.634-.308.911-.713 1.427-.89-.136-1.68-.176-2.582-.173l2.986 2.32c.49-.09.981-.18 1.472-.268l1.47-1.472-2.094-3.257-1.974-4.298M59.178 8.223c.606 2.73 1.389 5.248 1.316 8.044-.09 3.43-.757 7.763-3.933 9.832-3.557 2.316-7.732 1.22-11.634.228l4.77 1.963 4.457.223 3.031-.892 2.363-1.963 1.783-3.747.669-4.328-.535-4.238-.98-4.193-1.307-.93M6.1 16.359c-1.614 1.052-2.248 1.514-2.071 3.463l.482 1.751.684.463.845.282 1.529-.362.784-2.436-2.172 1.067h-.503l-.563-.865.684-1.007.362-1.912.463.14.563.443-.08-1.006-.383-.644-.382-.323-.242.946M42.326 1c1.433 1.332 3.192 2.49 4.338 4.117.443.63.936.952-.007 1.842.997-.285 1.367-.255 2.166-.158 1.452.176 2.813 2.242 2.9 3.723-.017.138-.403.453-1.526.763-.022.043-.634-.084-.619-.042.117.32.273.368.511.517.052.356.085.904.327 1.293a9.787 9.787 0 012.089.201c.233.387.198.773.178 1.16l.803-.134-.223-1.829.713-1.204-1.025-2.32-1.962-1.874-.188-.009-2.206-1.355-3.598-2.945L42.326 1m2.414 10.991c-.076.133-.19.344-.336.49.597.566.891.944 1.104 1.743l-2.024 1.006-1.713 1.643c-.752-.405-.939-.716-1.302-1.488-.424.113-.825.22-1.175.092.222.002.358-.054.58-.19l1.09-1.134 1.925-1.459 1.26-.41c.16-.067.43-.226.59-.293" fill="#CC0"/><path d="M47 14.484c-2.256 1.157-4.416 2.32-5.57 4.516 0-2.788 2.94-4.015 5.57-4.516M40.983 9c-1.675 1.087-2.86 3.282-2.71 5.42-.546-1.851-.353-3.601 1.322-4.88l.848-.392.54-.148" fill="#CC0"/><path d="M62.67 13.736c-.29-1.838-.77-3.622-1.437-4.905a1.924 1.924 0 00-.357-.468 3.675 3.675 0 00-1.328-.814c-.536-.186-1.102-.224-1.551.012a1.3 1.3 0 00-.322.24c-.29.296-.536.657-.782 1.017-.273.402-.548.806-.876 1.089-.382.328-.859.527-1.308.708a8.94 8.94 0 00-.681-1.33 12.72 12.72 0 00-1.043-1.418 5.797 5.797 0 00-.953-.915c-.332-.255-.672-.47-1.068-.72-1.062-.668-1.967-1.466-2.89-2.28a55.38 55.38 0 00-1.256-1.088C44.621 1.042 42.572.158 40.381.02c-2.176-.137-4.474.464-7.188 1.613-1.31.555-2.282 1.21-3.129 1.998-.81.753-1.496 1.62-2.251 2.634-.44.03-.829.096-1.226.256-.438.177-.88.462-1.407.931-.368.326-.728.661-1.08 1.004-.323.315-.64.636-.951.963-2.47.4-4.483.84-6.285 1.542-1.844.719-3.468 1.707-5.137 3.196a13.56 13.56 0 00-1.789 1.932A14.26 14.26 0 008.615 18.2c-.334.372-.668.747-1.03 1.075-.353.32-.73.59-1.151.753-.245.095-.346.15-.357.147-.013-.007-.02-.044-.037-.112.606-.581.701-1.436.757-2.284.073.088.142.196.215.308.08.124.162.253.26.377l.411.522.144-.65c.122-.546.212-1.273.071-1.902-.091-.41-.28-.773-.608-1.031.031-.083.06-.159.09-.234.103-.266.21-.538.3-.795l.178-.51-.53.092c-.706.124-2.222.962-3.29 2.076-.396.414-.737.872-.96 1.352-.233.5-.337 1.022-.247 1.545.079.458.306.907.72 1.33.075.306.144.57.218.81.086.271.177.515.292.754.31.65.806 1.047 1.38 1.232.46.15.97.157 1.47.047a13.585 13.585 0 00-.184 1.811c-.032.848 0 1.785.092 2.873a15.252 15.252 0 00.21 1.507l-.281.77-.437 1.194-.96.957-.895.892-.217.21c-.605.586-.725.703-.553 1.734.11.66.324 1.297.634 1.889a6.834 6.834 0 001.207 1.64c.638.643 1.684 1.442 2.78 1.861.626.24 1.27.356 1.876.258a10.678 10.678 0 01-.414 1.071c-.743 1.64.02 2.495 1.207 3.04.592.271 1.297.456 1.952.628.134.034.268.07.436.116.776.21 2.116.598 3.34.676 1.337.085 2.542-.193 2.865-1.4.128-.478.202-.844.232-1.203a6.089 6.089 0 00-.021-1.085c.38-.85.542-1.089.82-1.498.055-.081.121-.178.14-.209.3-.445.44-.761.49-1.117.05-.343.008-.686-.054-1.209l-.028-.218c.77.1 1.544.154 2.32.16.39.002.779-.01 1.168-.03l-.304.157-.145.075c-1.031.534-1.074 1.545-.751 2.586.29.938.89 1.896 1.266 2.478.79 1.226 1.545 2.263 2.46 2.827.958.591 2.053.66 3.466-.109.72-.392.946-.79 1.252-1.33.093-.163.196-.343.311-.52.297-.197 1.037-.81 1.762-1.415.247-.205.494-.41.773-.638.192.142.424.24.704.308.363.087.797.127 1.316.164.388.03 1.655.028 2.474.028h.588c.845.006 1.527-.039 2.043-.333.55-.313.875-.868.946-1.863.031-.442.037-.715-.024-.993-.057-.261-.168-.497-.36-.843-.01-.43-.022-.86-.034-1.29l-.036-1.37a6.251 6.251 0 00-.182-1.404 9.35 9.35 0 00-.467-1.33 21.914 21.914 0 01-.362-.94l-.297.109.046-.017.25-.093c-.176-.48-.35-.947-.594-1.447l.047-.31.47.456.696.674c.53.513 1.013.98 1.582 1.317.589.35 1.25.553 2.107.512.897-.043 1.856-.423 2.646-1.01.765-.567 1.378-1.333 1.634-2.18l.222-.735.177-.586c1.258.214 2.608.283 3.911.146 1.259-.133 2.474-.456 3.522-1.018 1.541-.827 2.696-2.046 3.527-3.493.928-1.617 1.448-3.522 1.645-5.483.158-1.572.072-3.71-.254-5.772zM46.374 26.952c-.724-.245-1.228-.603-1.865-1.007.173.786.252 1.617.021 2.402-.366 1.245-.957 3.282.723 3.657.639.143.93.123 1.832-.346-.73.166-1.1.126-1.601.032-.455-.084-.697-.375-.824-.718.16.115.418.178.862.286 1.245.302 2.432-.302 2.664-1.17.135-.508.112-.775.399-1.467.258.08.524.153.797.22l-.462 1.518c-.4 1.314-1.96 2.374-3.337 2.35-1.273-.023-2.08-.826-2.96-1.612-.605-.542-1.187-1.06-1.764-1.574-1.585-.503-2.855-1.091-4.325-2.186 1.046 1.237 1.756 1.922 3.215 2.537-.212 2.179-.964 3.767-1.606 5.851-.29.943-2.582 4.72-3.217 5.088-.453.263-3.29 2.666-3.823 2.984-.398.53-.746 1.265-1.344 1.582-1.82.969-2.99-.886-3.97-2.452-.447-.714-1.686-2.77-.606-3.345 1.021-.545 1.593-.933 2.635-1.622.153.281.416.552.587.833l-.114-.92a7.291 7.291 0 01-.022-1.567l.127-1.624c-.156.55-.47 1.1-.626 1.65-.062.221-.114.399-.144.564a18.3 18.3 0 01-6.997.09 43.43 43.43 0 00-.483-2.428c-.046.728-.016 2.743-.02 3.87-.003.874-.04 1.174-.487 1.917-.42.696-.597.854-1.184 2.03.049.742.05 1.232-.146 1.937-.326 1.17-3.613.263-4.48.024-1.068-.294-3.276-.73-2.72-2.163.488-1.26.798-2.59 1.037-4.353-1.957-2.836-3.776-6.722-4.125-10.165-.272-2.673-.109-4.318.466-5.954.911-2.59 2.186-4.833 4.23-6.64 2.76-2.435 5.338-3.413 9.376-4.031-.97 1.094-1.931 2.25-2.978 3.49-1.06 1.255-1.69 2.523-2.363 3.896-.93 1.896-.91 2.618.323 4.283 1.062 1.435 1.635 2.08 2.099 3.484-.383.795-.523 1.466-.651 2.55 1.3 1.43 2.267 2.41 3.53 2.713 1.238.296 2.272.239 3.38-.331 2.462-1.266 4.739-2.901 7.515-2.969 1.284-3.176 1.155-5.831.538-8.905-.421-2.1-.59-4.087-.721-6.227-.52 2.204-.619 4.142-.232 6.338.466 2.645.828 5.568-.468 7.894-2.51.193-4.662 1.73-6.924 2.909-.91.474-1.857.52-2.863.242-.935-.258-1.565-.88-2.572-2.048-.016-1.173.247-1.714.783-2.777.86-1.705 1.809-3.293 2.85-4.97-1.275 1.548-2.483 2.842-3.487 4.4-.384-1.1-.933-1.659-1.842-2.898-.888-1.21-.98-1.739-.316-3.139.667-1.407 1.233-2.643 2.369-3.878 1.963-2.132 3.761-4.506 5.908-6.607 1.165-1.14 1.639-1.1 3.185-1.336a54.132 54.132 0 004.186-.816c-1.378.13-2.71.177-4.052.21l-.042.002c1.32-1.697 2.087-2.642 4.23-3.58 5.28-2.306 8.634-2.555 12.78.952 1.076.909 2.014 1.791 3.104 2.575a3.916 3.916 0 00-1.186.283c.548-.105 1.18 0 1.75.104.16.104.324.206.491.306.77.456 1.206.708 1.727 1.437.55.77 1.008 1.54 1.412 2.39-.265-.095-.487-.176-.685-.235a1.466 1.466 0 00-1.388.087l-.032.015c-.426.208-1.085.446-1.526.518.225.078.723.107.957.014a.689.689 0 01.097-.03 1.488 1.488 0 00-.04 1.433l.002.003c.04.094.095.18.156.243-.202.075-.408.16-.62.253.984-.15 1.871-.176 2.831-.05.063.305.127.628.187.956l-.357.028-.029.003c-.454-.365-.96-.304-1.652-.145-2.103.482-1.609 1.67-2.576 3.458 1.005-1.235.93-2.528 2.567-2.918.381-.09.64-.204.9-.165-.465.235-.867.625-1.027 1.077-.449 1.277-.17 2.352-.664 3.545.611-1.066.648-2.106 1.195-3.228.197-.402.925-1.047 1.372-1.057l.369-.008c.108.71.173 1.414.131 1.998-.076 1.066-.351 2.649-.516 3.255.554-.717.806-2.234 1.05-3.302.252-1.112.188-2.446-.033-3.64-.305-1.64 1.373-1.373 2.347-2.145.716-.568 1.21-1.475 1.866-2.117.65-.638 1.676.299 1.932.921 1.11 2.703 1.616 6.956 1.323 9.681-.33 3.058-1.797 6.396-4.478 7.901-3.417 1.92-7.445.747-10.84-.404zm-4.855 13.58c-.111 1.262-.53 1.346-1.63 1.326-.5-.009-2.493-.018-2.998-.061-.715-.062-1.116-.127-1.334-.29 1.122-.83 3.029-4.251 3.4-5.43.394-1.244.824-2.33 1.144-3.48.148.48.264.957.478 1.468.358.853.533 1.38.558 2.296l.081 2.897c.308.542.356.657.301 1.275zm-33.77-9.556c.713 2.48 1.926 4.918 3.272 6.967v.035c-.084.353-.182.695-.386.97-.962 1.296-3.409-.605-4.117-1.332-.775-.796-1.293-1.737-1.416-2.62-.09-.645-.003-.66.444-1.117l1.807-1.84.396-1.063zM6.388 15.378c-.183.394-.312.694-.4 1.001-.384 1.333.173 2.523-1.03 3.49.566 1.147.54 1.605 1.854 1.074a4.314 4.314 0 001.3-.83 24.638 24.638 0 00-.574 1.679c-.94.401-2.177.656-2.65-.338-.23-.483-.36-.956-.527-1.566-1.549-1.614.766-3.746 2.027-4.51zm.761 1.71c-.191-.193-.344-.323-.591-.295a3.658 3.658 0 01.15-.693c.321.188.406.528.441.988zm46.432-6.029c.059.124.116.25.173.378-.047.034-.092.07-.133.109a1.506 1.506 0 00-.324-.479l.284-.008zM6.548 20.326l-.01-.027.01.027zm-5.464-.388c.246-2.807.789-4.02 2.771-6.132C1.37 15.569.748 16.37 1.084 19.938M.031 18c.272-1.291.525-1.779 1.294-2.838C.078 16.064-.085 16.434.031 18M29 0c-1.48.37-1.761.652-2.205 2.154C27.503 1.054 27.91.697 29 0" fill="#000"/><path d="M31.942 0c-3.008.736-3.892 1.258-4.89 4.736 1.27-2.547 2.23-3.485 4.89-4.736m6.477 12.676c.32-1.416.89-2.782 3.095-3.838-2.923.73-3.471 1.955-3.095 3.839m18.6.097c1.732-.615 2.566-2.004 2.981-3.638-.678 1.37-1.723 2.515-3.144 3.216-.762.376-1.249.245-2.1.165.866.248 1.414.56 2.264.257m-11.794 1.389a1.965 1.965 0 00-1.102-1c.424-.226.841-.463 1.167-.759-.953.44-2.063.333-2.881.884-.72.486-1.715 2.024-2.447 2.676.53-.205 1.041-.56 1.512-.934a1.955 1.955 0 001.055 1.72c-.27.354-.486.746-.64 1.164 1.395-1.648 3.416-2.892 5.316-3.425-.531-.007-1.16.092-1.8.302a1.949 1.949 0 00-.18-.628m-2.005 12.453c-.068.427-.161.957-.229 1.384.181-.483.4-1.044.61-1.505.223-.488.349-.533.823-.79.336-.183.946-.434 1.282-.616-.346.058-.965.185-1.311.243-.923.155-1.032.377-1.175 1.284M27.446 10.139c-1.072 1.057-2.113 4.684-2.446 6.135.524-1.205 1.835-4.577 2.841-5.435.278-.237.472-.383.68-.488-.72 1.204-.666 1.504-.414 3.118.215-1.641.783-2.275 1.717-3.5a24.657 24.657 0 003.03-.97c-1.183.133-2.366.256-3.55.367-.994.094-1.154.078-1.859.773" fill="#000"/><path d="M42.076 16.516c-.186-.452-.02-.992.372-1.207a.696.696 0 01.659-.01.88.88 0 01.436.568c-.375.32-.718.696-1.005 1.133a.916.916 0 01-.462-.484m8.758-3.9c.032-.374.308-.649.632-.613.324.037.562.369.531.743a.764.764 0 01-.053.222 4.601 4.601 0 00-.898.287.986.986 0 01-.212-.64" fill="#FFC"/></g></svg>