<svg width="33" height="29" xmlns="http://www.w3.org/2000/svg"><g fill="#36DFFF"><path d="M32.175 14.336c0-2.133-2.67-4.153-6.762-5.406.945-4.173.525-7.493-1.324-8.556-.427-.25-.925-.367-1.47-.367V1.47c.302 0 .545.059.748.17.892.512 1.28 2.46.977 4.967a20.25 20.25 0 01-.334 1.929 31.771 31.771 0 00-4.165-.715 32.002 32.002 0 00-2.728-3.28c2.138-1.989 4.145-3.078 5.51-3.078V0c-1.804 0-4.165 1.286-6.553 3.517-2.387-2.218-4.748-3.49-6.551-3.49v1.462c1.357 0 3.37 1.083 5.509 3.058a30.986 30.986 0 00-2.709 3.274c-1.482.157-2.886.4-4.171.721a19.801 19.801 0 01-.341-1.902c-.308-2.507.072-4.455.957-4.974.197-.118.453-.17.755-.17V.033C8.972.033 8.473.15 8.04.4 6.198 1.463 5.784 4.776 6.735 8.936 2.656 10.196 0 12.21 0 14.336c0 2.132 2.67 4.153 6.762 5.406-.945 4.173-.525 7.493 1.324 8.556.427.249.925.367 1.476.367 1.804 0 4.165-1.286 6.552-3.517 2.387 2.218 4.748 3.49 6.551 3.49.551 0 1.05-.117 1.483-.367 1.843-1.063 2.256-4.376 1.305-8.536 4.066-1.253 6.722-3.273 6.722-5.4zM23.636 9.96a29.558 29.558 0 01-.885 2.591 35.503 35.503 0 00-1.804-3.11c.931.138 1.83.309 2.69.519zm-3.004 6.987a34.956 34.956 0 01-1.58 2.506 34.11 34.11 0 01-5.916.007 36.17 36.17 0 01-1.587-2.493 34.18 34.18 0 01-1.364-2.612 34.956 34.956 0 012.938-5.124 34.11 34.11 0 015.916-.006 36.17 36.17 0 011.587 2.493c.498.86.95 1.732 1.364 2.611-.413.88-.866 1.759-1.358 2.618zm2.119-.853c.354.88.656 1.758.905 2.611-.86.21-1.764.388-2.702.525a36.466 36.466 0 001.797-3.135zm-6.65 7c-.61-.63-1.22-1.331-1.824-2.099.59.026 1.194.046 1.804.046.616 0 1.226-.013 1.823-.046a25.6 25.6 0 01-1.803 2.1zm-4.88-3.864a29.582 29.582 0 01-2.689-.518c.243-.846.545-1.719.886-2.592.269.525.55 1.05.859 1.575.308.525.623 1.037.944 1.535zm4.847-13.653c.61.63 1.22 1.332 1.823 2.1a40.582 40.582 0 00-1.803-.047c-.617 0-1.227.014-1.824.046.59-.767 1.2-1.47 1.804-2.1zM11.215 9.44a36.249 36.249 0 00-1.797 3.13 28.126 28.126 0 01-.905-2.611c.859-.204 1.764-.38 2.702-.519zm-5.936 8.215c-2.321-.991-3.823-2.29-3.823-3.32 0-1.03 1.502-2.336 3.823-3.32.564-.243 1.18-.46 1.817-.663a31.52 31.52 0 001.476 3.996 31.075 31.075 0 00-1.456 3.976 19.917 19.917 0 01-1.837-.67zm3.529 9.375c-.892-.511-1.28-2.46-.977-4.966.072-.617.19-1.267.334-1.93 1.286.316 2.689.558 4.165.716a32.002 32.002 0 002.728 3.28c-2.138 1.988-4.145 3.077-5.51 3.077-.294-.006-.543-.065-.74-.177zm15.556-5c.308 2.507-.072 4.456-.957 4.974-.197.118-.453.17-.755.17-1.357 0-3.37-1.082-5.509-3.057a30.986 30.986 0 002.709-3.274c1.482-.157 2.886-.4 4.171-.721.15.662.269 1.299.341 1.909zm2.525-4.375c-.564.242-1.18.459-1.817.662a31.52 31.52 0 00-1.475-3.995 31.075 31.075 0 001.456-3.976 20.73 20.73 0 011.843.669c2.321.99 3.823 2.29 3.823 3.32-.007 1.03-1.508 2.335-3.83 3.32z"/><circle cx="15.795" cy="14.625" r="2.925"/></g></svg>