<svg width="74" height="39" xmlns="http://www.w3.org/2000/svg"><g fill="none" fill-rule="evenodd"><path d="M67.55 19.402c-.067-.135-.095-.205-.13-.27-.95-1.763-1.896-3.522-2.854-5.28-.095-.179-.083-.283.047-.434 1.508-1.72 3.008-3.448 4.513-5.176a.465.465 0 00.118-.232l-1.318.337c-1.824.471-3.645.943-5.466 1.418-.17.043-.245-.003-.332-.143a2363.716 2363.716 0 00-3.115-5.06.696.696 0 00-.226-.247c-.083.448-.17.9-.249 1.35l-.867 4.765c-.031.17-.075.344-.09.514-.017.163-.1.225-.254.271-2.15.657-4.295 1.322-6.44 1.987a.76.76 0 00-.289.154c1.758.68 3.511 1.365 5.296 2.057-.063.05-.107.089-.154.12-1.097.692-2.197 1.384-3.293 2.083-.13.085-.234.097-.384.031-1.31-.576-2.628-1.14-3.942-1.716-.59-.255-1.12-.6-1.532-1.09-.934-1.117-.748-2.385.495-3.158.407-.255.87-.445 1.33-.592 2.105-.668 4.215-1.314 6.324-1.963.178-.055.258-.132.293-.317.281-1.59.574-3.178.867-4.767.158-.85.241-1.72.665-2.497.162-.297.356-.591.59-.842.839-.909 2.006-.944 2.893-.078.3.294.558.638.78.99.977 1.554 1.935 3.12 2.893 4.685.11.185.214.224.423.166 2.355-.614 4.71-1.221 7.065-1.832.487-.124.978-.17 1.477-.081 1.084.197 1.56 1.005 1.195 2.03-.166.467-.455.861-.78 1.232a1702.7 1702.7 0 01-4.935 5.663c-.135.155-.139.267-.044.437.986 1.813 1.96 3.626 2.937 5.443.234.433.412.885.42 1.383.011 1.133-.84 2.06-1.991 2.227-.645.093-1.247-.043-1.853-.224a582.299 582.299 0 00-4.433-1.318c-.138-.039-.19-.093-.213-.236-.17-1.017-.356-2.03-.535-3.046-.004-.027.004-.058.008-.12 1.682.456 3.353.904 5.09 1.376" fill="#E25C26"/><path d="M64.983 34.692c-1.302-.003-2.608-.007-3.91-.003-.17 0-.267-.051-.364-.2a2772.377 2772.377 0 00-4.643-7.079c-.05-.074-.1-.148-.19-.273l-.984 7.536h-3.414c.039-.335.074-.659.116-.978.334-2.56.667-5.116 1.004-7.676.318-2.443.64-4.89.961-7.333a.309.309 0 01.116-.203c1.175-.771 2.353-1.531 3.53-2.299.016-.011.043-.011.101-.03-.356 2.73-.709 5.443-1.065 8.154.015.008.027.02.042.032 1.849-2.062 3.697-4.123 5.588-6.227l.148.857c.131.776.26 1.555.403 2.33.027.156-.012.254-.117.363a3206.85 3206.85 0 00-3.576 3.78c-.05.054-.101.112-.163.175.039.062.07.12.108.175l6.17 8.705c.038.05.089.093.135.14a.298.298 0 01.004.054M24.53 27.15c-.05-.269-.09-.659-.205-1.025-.574-1.773-2.38-2.747-4.255-2.306-2.054.479-3.523 2.104-3.736 4.212-.159 1.558.678 3.062 2.232 3.623 1.252.456 2.453.265 3.573-.409 1.48-.892 2.286-2.22 2.391-4.095zm-9.021 6.593c-.101.763-.198 1.48-.291 2.201a702.45 702.45 0 00-.368 2.868c-.016.113-.047.16-.167.16-.938-.004-1.875-.004-2.813-.004-.02 0-.043-.012-.093-.027.058-.452.112-.904.17-1.356.206-1.586.415-3.172.624-4.758.24-1.812.43-3.635.736-5.435.543-3.192 3.236-5.939 6.395-6.624 1.829-.398 3.584-.215 5.18.822 1.593 1.032 2.508 2.532 2.717 4.418.295 2.665-.682 4.879-2.565 6.71-1.236 1.204-2.717 1.968-4.426 2.225-1.759.265-3.414-.027-4.894-1.072-.054-.039-.112-.07-.205-.128M13.982 18.58L10.9 20.887c-.163-.26-.31-.518-.484-.76-.442-.619-.993-1.083-1.787-1.141-.663-.047-1.232.171-1.682.666-.403.44-.457 1.064-.081 1.563.414.545.872 1.063 1.333 1.57.771.838 1.573 1.644 2.34 2.49.698.767 1.252 1.629 1.423 2.677.205 1.247-.043 2.435-.632 3.534-1.085 2.03-2.798 3.206-5.053 3.573-.996.163-1.992.128-2.965-.156-1.29-.382-2.19-1.235-2.767-2.435-.205-.425-.36-.873-.546-1.33 1.132-.607 2.228-1.2 3.344-1.8.039.094.066.172.101.246.19.382.345.787.581 1.142.698 1.044 1.826 1.36 2.969.845.294-.132.577-.32.817-.533.737-.659.876-1.575.33-2.4-.314-.476-.705-.9-1.09-1.33-.91-1.016-1.86-2.002-2.75-3.038-.613-.717-1.031-1.551-1.163-2.51a4.311 4.311 0 01.604-2.91c1.345-2.186 3.298-3.324 5.883-3.23 1.473.054 2.647.748 3.557 1.897.272.339.524.694.799 1.064m24.964 11.74c-.17 1.317-.334 2.567-.5 3.818-.008.063-.058.148-.113.176-2.542 1.184-5.894 1.02-7.982-1.368-1.124-1.282-1.593-2.802-1.523-4.493.162-3.916 3.39-7.337 7.254-7.812 2.255-.28 4.236.335 5.766 2.096 1.043 1.2 1.523 2.634 1.453 4.216-.046 1.044-.209 2.085-.34 3.125-.183 1.473-.384 2.946-.578 4.419-.008.05-.015.105-.03.171H39.31c.039-.339.078-.67.12-1.001.221-1.703.461-3.398.655-5.105.12-1.06.047-2.115-.438-3.097-.511-1.045-1.376-1.598-2.507-1.719-2.345-.249-4.573 1.388-5.073 3.706-.33 1.531.19 2.996 1.403 3.81 1.182.792 2.45.792 3.736.281.655-.257 1.209-.67 1.74-1.223m12.811-9.383c-.14 1.06-.275 2.104-.414 3.172-.644 0-1.275-.004-1.907 0a1.202 1.202 0 00-1.132.814c-.062.187-.081.39-.108.585-.322 2.435-.64 4.87-.957 7.31-.082.615-.16 1.227-.24 1.85h-3.167l.175-1.375c.205-1.578.41-3.156.62-4.735.182-1.363.34-2.735.554-4.095.283-1.823 2.089-3.444 3.922-3.522.875-.035 1.751-.004 2.654-.004m16.962 13.735v-1.344h-.008l-.523 1.344h-.167l-.523-1.344h-.008v1.344h-.263v-1.61h.407l.477 1.224.468-1.223h.403v1.609h-.263zm-2.325-1.395v1.395h-.264v-1.395h-.5v-.214h1.268v.214h-.504zM18.225 16.321h.787l-.186-1.196-.6 1.196zm.907.771h-1.306l-.415.819h-.926l2.042-3.835h.892l.693 3.835h-.856l-.124-.819zm4.677-2.244h-.465l-.155.884h.465c.28 0 .504-.187.504-.533 0-.234-.143-.351-.349-.351zm-1.127-.772h1.22c.64 0 1.09.382 1.09 1.045 0 .83-.582 1.387-1.415 1.387h-.527l-.248 1.403h-.795l.675-3.835zm5.014 2.245h.787l-.186-1.196-.601 1.196zm.91.771h-1.305l-.415.819h-.926l2.042-3.835h.891l.694 3.835h-.856l-.124-.819zm5.162.682a2.064 2.064 0 01-.864.199c-1.007 0-1.643-.76-1.643-1.715 0-1.22 1.02-2.244 2.232-2.244.303 0 .578.074.803.199l-.113.92c-.167-.188-.438-.316-.775-.316-.694 0-1.314.631-1.314 1.364 0 .557.35.993.9.993a1.4 1.4 0 00.88-.312l-.106.912zm4.868-1.41h-1.659l-.271 1.543h-.795l.675-3.834h.794l-.267 1.515h1.658l.268-1.515h.798l-.674 3.834h-.795l.268-1.543zm2.922 1.547l.67-3.835h2.116l-.136.772h-1.317l-.136.744h1.21l-.136.772h-1.213l-.136.771h1.318l-.136.772-2.104.004z" fill="#3D3B3E" fill-rule="nonzero"/></g></svg>